<svg width="70" height="70" viewBox="0 0 70 70" fill="none" xmlns="http://www.w3.org/2000/svg">
<path d="M69.4851 35C69.4851 15.6696 53.9307 0 34.7425 0C15.5544 0 0 15.6696 0 35C0 52.4689 12.7029 66.9511 29.3124 69.5748V45.1163H20.4904V35H29.3124V27.2896C29.3124 18.5163 34.5006 13.6733 42.4374 13.6733C46.241 13.6733 50.2146 14.3578 50.2146 14.3578V22.9704H45.8344C41.5212 22.9704 40.1727 25.6667 40.1727 28.4356V35H49.8079L48.269 45.1163H40.1727V69.5748C56.7822 66.9511 69.4851 52.4689 69.4851 35Z" fill="#00C9C8"/>
<path d="M47.264 45.1163L48.8029 35H39.1677V28.4356C39.1677 25.6667 40.511 22.9704 44.8294 22.9704H49.2095V14.3578C49.2095 14.3578 45.236 13.6733 41.4324 13.6733C33.4956 13.6733 28.3074 18.5163 28.3074 27.2896V35H19.4854V45.1163H28.3074V69.5748C30.078 69.8548 31.8897 70 33.7375 70C35.5853 70 37.3971 69.8548 39.1677 69.5748V45.1163H47.264Z" fill="white"/>
</svg>
