<svg width="71" height="70" viewBox="0 0 71 70" fill="none" xmlns="http://www.w3.org/2000/svg">
<path d="M35.5 70C54.6878 70 70.2426 54.33 70.2426 35C70.2426 15.67 54.6878 0 35.5 0C16.3122 0 0.757446 15.67 0.757446 35C0.757446 54.33 16.3122 70 35.5 70Z" fill="#00C9C8"/>
<path d="M35.5 16.9348C41.3419 16.9348 42.0316 16.9556 44.3375 17.0644C46.4684 17.163 47.6265 17.5207 48.3985 17.8215C49.4176 18.2207 50.1485 18.6978 50.9154 19.4704C51.6823 20.243 52.1559 20.9741 52.5522 22.0059C52.8507 22.7837 53.2058 23.9504 53.3036 26.097C53.4066 28.42 53.4323 29.12 53.4323 35C53.4323 40.88 53.4117 41.58 53.3036 43.903C53.2058 46.0496 52.8507 47.2163 52.5522 47.9941C52.1559 49.0207 51.6823 49.757 50.9154 50.5296C50.1485 51.3022 49.4228 51.7793 48.3985 52.1785C47.6265 52.4793 46.4684 52.837 44.3375 52.9356C42.0316 53.0393 41.3419 53.0652 35.5 53.0652C29.6581 53.0652 28.9684 53.0444 26.6625 52.9356C24.5317 52.837 23.3736 52.4793 22.6015 52.1785C21.5824 51.7793 20.8515 51.3022 20.0846 50.5296C19.3177 49.757 18.8442 49.0259 18.4479 47.9941C18.1493 47.2163 17.7942 46.0496 17.6964 43.903C17.5934 41.58 17.5677 40.88 17.5677 35C17.5677 29.12 17.5883 28.42 17.6964 26.097C17.7942 23.9504 18.1493 22.7837 18.4479 22.0059C18.8442 20.9793 19.3177 20.243 20.0846 19.4704C20.8515 18.6978 21.5773 18.2207 22.6015 17.8215C23.3736 17.5207 24.5317 17.163 26.6625 17.0644C28.9684 16.9607 29.6633 16.9348 35.5 16.9348ZM35.5 12.963C29.5603 12.963 28.814 12.9889 26.4824 13.0978C24.1559 13.2067 22.5655 13.5748 21.1706 14.1244C19.7346 14.6896 18.5148 15.4415 17.2949 16.6652C16.0802 17.8889 15.3287 19.1178 14.7729 20.5696C14.2324 21.9696 13.8618 23.5719 13.7537 25.9207C13.6457 28.2696 13.6199 29.0215 13.6199 35.0052C13.6199 40.9889 13.6457 41.7407 13.7537 44.0896C13.8618 46.4333 14.2273 48.0356 14.7729 49.4407C15.3339 50.8874 16.0802 52.1163 17.2949 53.3452C18.5096 54.5689 19.7295 55.3259 21.1706 55.8859C22.5603 56.4304 24.1508 56.8037 26.4824 56.9126C28.814 57.0215 29.5603 57.0474 35.5 57.0474C41.4397 57.0474 42.186 57.0215 44.5176 56.9126C46.8441 56.8037 48.4345 56.4356 49.8294 55.8859C51.2654 55.3207 52.4853 54.5689 53.7051 53.3452C54.9198 52.1215 55.6713 50.8926 56.2272 49.4407C56.7676 48.0407 57.1382 46.4385 57.2463 44.0896C57.3544 41.7407 57.3801 40.9889 57.3801 35.0052C57.3801 29.0215 57.3544 28.2696 57.2463 25.9207C57.1382 23.577 56.7727 21.9748 56.2272 20.5696C55.6661 19.123 54.9198 17.8941 53.7051 16.6652C52.4904 15.4415 51.2706 14.6844 49.8294 14.1244C48.4397 13.58 46.8492 13.2067 44.5176 13.0978C42.186 12.9889 41.4397 12.963 35.5 12.963Z" fill="white"/>
<path d="M35.5 23.6859C29.2978 23.6859 24.2692 28.7519 24.2692 35C24.2692 41.2482 29.2978 46.3141 35.5 46.3141C41.7022 46.3141 46.7309 41.2482 46.7309 35C46.7309 28.7519 41.7022 23.6859 35.5 23.6859ZM35.5 42.3474C31.475 42.3474 28.2067 39.06 28.2067 35C28.2067 30.94 31.4699 27.6526 35.5 27.6526C39.5302 27.6526 42.7934 30.94 42.7934 35C42.7934 39.06 39.5302 42.3474 35.5 42.3474Z" fill="white"/>
<path d="M47.1786 25.8793C48.6284 25.8793 49.8036 24.6953 49.8036 23.2348C49.8036 21.7743 48.6284 20.5904 47.1786 20.5904C45.7289 20.5904 44.5536 21.7743 44.5536 23.2348C44.5536 24.6953 45.7289 25.8793 47.1786 25.8793Z" fill="white"/>
</svg>
