<svg width="70" height="70" viewBox="0 0 70 70" fill="none" xmlns="http://www.w3.org/2000/svg">
<path d="M35.2574 70C54.4452 70 70 54.33 70 35C70 15.67 54.4452 0 35.2574 0C16.0697 0 0.514893 15.67 0.514893 35C0.514893 54.33 16.0697 70 35.2574 70Z" fill="#00C9C8"/>
<path d="M28.2369 55.16C45.2067 55.16 54.4868 40.9993 54.4868 28.7156C54.4868 28.3111 54.4765 27.9119 54.461 27.5126C56.2625 26.2007 57.8272 24.5622 59.0625 22.7007C57.4103 23.4422 55.6294 23.94 53.7662 24.163C55.6706 23.0118 57.1324 21.1918 57.8221 19.0244C56.0412 20.0874 54.0647 20.8652 51.9647 21.28C50.2817 19.4756 47.8831 18.3452 45.2324 18.3452C40.1368 18.3452 36.0038 22.5089 36.0038 27.637C36.0038 28.3681 36.0861 29.0733 36.2457 29.7578C28.5766 29.3689 21.7773 25.6719 17.2325 20.0459C16.4399 21.42 15.9818 23.017 15.9818 24.7178C15.9818 27.943 17.6082 30.7896 20.0891 32.4541C18.5759 32.4074 17.1553 31.9874 15.9097 31.2926C15.9097 31.3289 15.9097 31.3704 15.9097 31.4119C15.9097 35.9126 19.0906 39.6719 23.3112 40.5222C22.534 40.7348 21.7207 40.8489 20.8817 40.8489C20.2898 40.8489 19.7082 40.7918 19.1472 40.683C20.3207 44.3748 23.728 47.0607 27.7633 47.1385C24.603 49.6326 20.6296 51.1156 16.306 51.1156C15.5597 51.1156 14.8288 51.0741 14.1031 50.9859C18.1847 53.62 23.0332 55.16 28.242 55.16" fill="white"/>
</svg>
