<svg width="70" height="70" viewBox="0 0 70 70" fill="none" xmlns="http://www.w3.org/2000/svg">
<path d="M34.8813 70C54.0691 70 69.6238 54.33 69.6238 35C69.6238 15.67 54.0691 0 34.8813 0C15.6935 0 0.138733 15.67 0.138733 35C0.138733 54.33 15.6935 70 34.8813 70Z" fill="#00C9C8"/>
<path fill-rule="evenodd" clip-rule="evenodd" d="M51.5937 18.5941C47.4349 14.3993 41.8967 12.0867 36.0033 12.0867C23.8563 12.0867 13.9689 22.0422 13.9637 34.2793C13.9637 38.1889 14.9777 42.0104 16.9078 45.3756L13.7836 56.8763L25.4674 53.7911C28.6843 55.5593 32.3129 56.4926 35.9982 56.4926H36.0085C48.1555 56.4926 58.043 46.537 58.0481 34.2948C58.0481 28.363 55.7577 22.7889 51.5989 18.5941H51.5937ZM36.0033 52.7437H35.9982C32.7092 52.7437 29.4872 51.8519 26.6769 50.1719L26.0078 49.7726L19.0747 51.603L20.9277 44.7948L20.4902 44.0948C18.6578 41.16 17.6902 37.7637 17.6902 34.2793C17.6902 24.1059 25.91 15.8304 36.0188 15.8304C40.9136 15.8304 45.5099 17.7541 48.9688 21.2385C52.4276 24.7282 54.332 29.3585 54.3268 34.2896C54.3268 44.463 46.107 52.7385 36.0085 52.7385L36.0033 52.7437ZM46.0504 38.9252C45.4997 38.6452 42.7923 37.3074 42.2879 37.1207C41.7835 36.9341 41.418 36.8407 41.0474 37.4007C40.682 37.9556 39.6269 39.2052 39.3026 39.5733C38.9835 39.9415 38.6592 39.9882 38.1085 39.7133C37.5578 39.4333 35.782 38.8526 33.682 36.96C32.0453 35.4874 30.9386 33.6726 30.6195 33.1178C30.3004 32.563 30.5835 32.2622 30.8615 31.9874C31.1085 31.7385 31.4122 31.3393 31.685 31.0178C31.9578 30.6963 32.0504 30.463 32.2357 30.0948C32.421 29.7267 32.3284 29.4 32.1894 29.1252C32.0504 28.8452 30.9489 26.1178 30.4909 25.0082C30.0431 23.9244 29.5901 24.0748 29.2504 24.0541C28.9313 24.0385 28.5607 24.0333 28.1953 24.0333C27.8299 24.0333 27.2328 24.1733 26.7284 24.7282C26.224 25.283 24.8034 26.6259 24.8034 29.3533C24.8034 32.0807 26.7747 34.72 27.0526 35.0882C27.3254 35.4563 30.9335 41.0615 36.4614 43.4622C37.7739 44.0326 38.8033 44.3748 39.6011 44.6289C40.9188 45.0489 42.1232 44.9919 43.0702 44.8467C44.1305 44.6859 46.3283 43.5037 46.7864 42.2074C47.2445 40.9111 47.2445 39.8015 47.1055 39.5682C46.9666 39.3348 46.6011 39.2 46.0504 38.92V38.9252Z" fill="white"/>
</svg>
